<?xml version="1.0" encoding="UTF-8"?><svg xmlns="http://www.w3.org/2000/svg" xmlns:xlink="http://www.w3.org/1999/xlink" fill-opacity="1" color-rendering="auto" color-interpolation="auto" text-rendering="auto" stroke="black" stroke-linecap="square" width="661" stroke-miterlimit="10" shape-rendering="auto" stroke-opacity="1" fill="black" stroke-dasharray="none" font-weight="normal" stroke-width="1" height="314" font-family="'Dialog'" font-style="normal" stroke-linejoin="miter" font-size="12px" stroke-dashoffset="0" image-rendering="auto">
  <!--Generated by ySVG 2.5-->
  <defs id="genericDefs"/>
  <g>
    <defs id="defs1">
      <clipPath clipPathUnits="userSpaceOnUse" id="clipPath1">
        <path d="M0 0 L661 0 L661 314 L0 314 L0 0 Z"/>
      </clipPath>
      <clipPath clipPathUnits="userSpaceOnUse" id="clipPath2">
        <path d="M-2550 -559 L-1889 -559 L-1889 -245 L-2550 -245 L-2550 -559 Z"/>
      </clipPath>
    </defs>
    <g text-rendering="geometricPrecision" shape-rendering="geometricPrecision" transform="translate(2550,559)">
      <rect x="-2550" width="661" height="314" y="-559" clip-path="url(#clipPath2)" stroke="none"/>
    </g>
    <g fill="rgb(102,0,51)" text-rendering="geometricPrecision" shape-rendering="geometricPrecision" transform="matrix(1,0,0,1,2550,559)" stroke="rgb(102,0,51)">
      <rect x="-2534.4648" y="-468" clip-path="url(#clipPath2)" width="195.2031" rx="4" ry="4" height="36" stroke="none"/>
    </g>
    <g stroke-linecap="butt" transform="matrix(1,0,0,1,2550,559)" fill="rgb(204,204,204)" text-rendering="geometricPrecision" shape-rendering="geometricPrecision" stroke="rgb(204,204,204)" stroke-width="2" stroke-miterlimit="1.45">
      <rect x="-2534.4648" y="-468" clip-path="url(#clipPath2)" fill="none" width="195.2031" rx="4" ry="4" height="36"/>
      <text x="-2522.4648" font-size="16px" y="-443.6484" clip-path="url(#clipPath2)" font-family="'Tahoma'" stroke="none" stroke-width="1" xml:space="preserve">JavaCoreUtilsApplication</text>
    </g>
    <g fill="rgb(0,51,102)" text-rendering="geometricPrecision" shape-rendering="geometricPrecision" transform="matrix(1,0,0,1,2550,559)" stroke="rgb(0,51,102)">
      <rect x="-2299.2617" y="-468" clip-path="url(#clipPath2)" width="80.4609" rx="4" ry="4" height="36" stroke="none"/>
    </g>
    <g stroke-linecap="butt" transform="matrix(1,0,0,1,2550,559)" fill="rgb(204,204,204)" text-rendering="geometricPrecision" shape-rendering="geometricPrecision" stroke="rgb(204,204,204)" stroke-width="2" stroke-miterlimit="1.45">
      <rect x="-2299.2617" y="-468" clip-path="url(#clipPath2)" fill="none" width="80.4609" rx="4" ry="4" height="36"/>
      <text x="-2287.2617" font-size="16px" y="-443.6484" clip-path="url(#clipPath2)" font-family="'Tahoma'" stroke="none" stroke-width="1" xml:space="preserve">MainUtil</text>
    </g>
    <g fill="rgb(0,51,102)" text-rendering="geometricPrecision" shape-rendering="geometricPrecision" transform="matrix(1,0,0,1,2550,559)" stroke="rgb(0,51,102)">
      <rect x="-2178.8008" y="-544" clip-path="url(#clipPath2)" width="122.6016" rx="4" ry="4" height="36" stroke="none"/>
    </g>
    <g stroke-linecap="butt" transform="matrix(1,0,0,1,2550,559)" fill="rgb(204,204,204)" text-rendering="geometricPrecision" shape-rendering="geometricPrecision" stroke="rgb(204,204,204)" stroke-width="2" stroke-miterlimit="1.45">
      <rect x="-2178.8008" y="-544" clip-path="url(#clipPath2)" fill="none" width="122.6016" rx="4" ry="4" height="36"/>
      <text x="-2166.8008" font-size="16px" y="-519.6484" clip-path="url(#clipPath2)" font-family="'Tahoma'" stroke="none" stroke-width="1" xml:space="preserve">MainMathsUtil</text>
    </g>
    <g fill="rgb(0,51,102)" text-rendering="geometricPrecision" shape-rendering="geometricPrecision" transform="matrix(1,0,0,1,2550,559)" stroke="rgb(0,51,102)">
      <rect x="-2178.8008" y="-392" clip-path="url(#clipPath2)" width="111.5" rx="4" ry="4" height="36" stroke="none"/>
    </g>
    <g stroke-linecap="butt" transform="matrix(1,0,0,1,2550,559)" fill="rgb(204,204,204)" text-rendering="geometricPrecision" shape-rendering="geometricPrecision" stroke="rgb(204,204,204)" stroke-width="2" stroke-miterlimit="1.45">
      <rect x="-2178.8008" y="-392" clip-path="url(#clipPath2)" fill="none" width="111.5" rx="4" ry="4" height="36"/>
      <text x="-2166.8008" font-size="16px" y="-367.6484" clip-path="url(#clipPath2)" font-family="'Tahoma'" stroke="none" stroke-width="1" xml:space="preserve">MainTextUtil</text>
    </g>
    <g fill="rgb(0,51,102)" text-rendering="geometricPrecision" shape-rendering="geometricPrecision" transform="matrix(1,0,0,1,2550,559)" stroke="rgb(0,51,102)">
      <rect x="-2178.8008" y="-468" clip-path="url(#clipPath2)" width="79.6719" rx="4" ry="4" height="36" stroke="none"/>
    </g>
    <g stroke-linecap="butt" transform="matrix(1,0,0,1,2550,559)" fill="rgb(204,204,204)" text-rendering="geometricPrecision" shape-rendering="geometricPrecision" stroke="rgb(204,204,204)" stroke-width="2" stroke-miterlimit="1.45">
      <rect x="-2178.8008" y="-468" clip-path="url(#clipPath2)" fill="none" width="79.6719" rx="4" ry="4" height="36"/>
      <text x="-2166.8008" font-size="16px" y="-443.6484" clip-path="url(#clipPath2)" font-family="'Tahoma'" stroke="none" stroke-width="1" xml:space="preserve">PrintUtil</text>
    </g>
    <g fill="rgb(0,51,102)" text-rendering="geometricPrecision" shape-rendering="geometricPrecision" transform="matrix(1,0,0,1,2550,559)" stroke="rgb(0,51,102)">
      <rect x="-2016.1992" y="-544" clip-path="url(#clipPath2)" width="112.1172" rx="4" ry="4" height="36" stroke="none"/>
    </g>
    <g stroke-linecap="butt" transform="matrix(1,0,0,1,2550,559)" fill="rgb(204,204,204)" text-rendering="geometricPrecision" shape-rendering="geometricPrecision" stroke="rgb(204,204,204)" stroke-width="2" stroke-miterlimit="1.45">
      <rect x="-2016.1992" y="-544" clip-path="url(#clipPath2)" fill="none" width="112.1172" rx="4" ry="4" height="36"/>
      <text x="-2004.1992" font-size="16px" y="-519.6484" clip-path="url(#clipPath2)" font-family="'Tahoma'" stroke="none" stroke-width="1" xml:space="preserve">[Maths utils]</text>
    </g>
    <g fill="rgb(0,51,102)" text-rendering="geometricPrecision" shape-rendering="geometricPrecision" transform="matrix(1,0,0,1,2550,559)" stroke="rgb(0,51,102)">
      <rect x="-2027.3008" y="-392" clip-path="url(#clipPath2)" width="101.0156" rx="4" ry="4" height="36" stroke="none"/>
    </g>
    <g stroke-linecap="butt" transform="matrix(1,0,0,1,2550,559)" fill="rgb(204,204,204)" text-rendering="geometricPrecision" shape-rendering="geometricPrecision" stroke="rgb(204,204,204)" stroke-width="2" stroke-miterlimit="1.45">
      <rect x="-2027.3008" y="-392" clip-path="url(#clipPath2)" fill="none" width="101.0156" rx="4" ry="4" height="36"/>
      <text x="-2015.3008" font-size="16px" y="-367.6484" clip-path="url(#clipPath2)" font-family="'Tahoma'" stroke="none" stroke-width="1" xml:space="preserve">[Text utils]</text>
    </g>
    <g fill="rgb(102,0,51)" text-rendering="geometricPrecision" shape-rendering="geometricPrecision" transform="matrix(1,0,0,1,2550,559)" stroke="rgb(102,0,51)">
      <rect x="-2534.4648" y="-296" clip-path="url(#clipPath2)" width="100.9922" rx="4" ry="4" height="36" stroke="none"/>
    </g>
    <g stroke-linecap="butt" transform="matrix(1,0,0,1,2550,559)" fill="rgb(204,204,204)" text-rendering="geometricPrecision" shape-rendering="geometricPrecision" stroke="rgb(204,204,204)" stroke-width="2" stroke-miterlimit="1.45">
      <rect x="-2534.4648" y="-296" clip-path="url(#clipPath2)" fill="none" width="100.9922" rx="4" ry="4" height="36"/>
      <text x="-2522.4648" font-size="16px" y="-271.6484" clip-path="url(#clipPath2)" font-family="'Tahoma'" stroke="none" stroke-width="1" xml:space="preserve">Application</text>
    </g>
    <g fill="rgb(0,51,102)" text-rendering="geometricPrecision" shape-rendering="geometricPrecision" transform="matrix(1,0,0,1,2550,559)" stroke="rgb(0,51,102)">
      <rect x="-2423.5781" y="-296" clip-path="url(#clipPath2)" width="47.1562" rx="4" ry="4" height="36" stroke="none"/>
    </g>
    <g stroke-linecap="butt" transform="matrix(1,0,0,1,2550,559)" fill="rgb(204,204,204)" text-rendering="geometricPrecision" shape-rendering="geometricPrecision" stroke="rgb(204,204,204)" stroke-width="2" stroke-miterlimit="1.45">
      <rect x="-2423.5781" y="-296" clip-path="url(#clipPath2)" fill="none" width="47.1562" rx="4" ry="4" height="36"/>
      <text x="-2411.5781" font-size="16px" y="-271.6484" clip-path="url(#clipPath2)" font-family="'Tahoma'" stroke="none" stroke-width="1" xml:space="preserve">Util</text>
      <path fill="none" d="M-2299.2778 -450 L-2330.2837 -450" clip-path="url(#clipPath2)"/>
      <path d="M-2339.2837 -450 L-2325.7837 -444.375 L-2329.1587 -450 L-2325.7837 -455.625 Z" clip-path="url(#clipPath2)" stroke="none"/>
      <path fill="none" d="M-2178.8325 -526 L-2259.0312 -526 L-2259.0312 -476.998" clip-path="url(#clipPath2)"/>
      <path d="M-2259.0312 -467.998 L-2253.4062 -481.498 L-2259.0312 -478.123 L-2264.6562 -481.498 Z" clip-path="url(#clipPath2)" stroke="none"/>
      <path fill="none" d="M-2178.7908 -374 L-2259.0312 -374 L-2259.0312 -423.002" clip-path="url(#clipPath2)"/>
      <path d="M-2259.0312 -432.002 L-2264.6562 -418.502 L-2259.0312 -421.877 L-2253.4062 -418.502 Z" clip-path="url(#clipPath2)" stroke="none"/>
      <path fill="none" d="M-2178.8 -450 L-2209.7981 -450" clip-path="url(#clipPath2)"/>
      <path d="M-2218.7981 -450 L-2205.2981 -444.375 L-2208.6731 -450 L-2205.2981 -455.625 Z" clip-path="url(#clipPath2)" stroke="none"/>
      <path fill="none" d="M-2123.0508 -431.9706 L-2123.0508 -400.9743" clip-path="url(#clipPath2)"/>
      <path d="M-2123.0508 -391.9743 L-2117.4258 -405.4743 L-2123.0508 -402.0993 L-2128.6758 -405.4743 Z" clip-path="url(#clipPath2)" stroke="none"/>
      <path fill="none" d="M-2117.5 -468.011 L-2117.5 -499.02" clip-path="url(#clipPath2)"/>
      <path d="M-2117.5 -508.02 L-2123.125 -494.52 L-2117.5 -497.895 L-2111.875 -494.52 Z" clip-path="url(#clipPath2)" stroke="none"/>
      <path fill="none" d="M-2099.1047 -450 L-1960.1406 -450 L-1960.1406 -499.002" clip-path="url(#clipPath2)"/>
      <path d="M-1960.1406 -508.002 L-1965.7656 -494.502 L-1960.1406 -497.877 L-1954.5156 -494.502 Z" clip-path="url(#clipPath2)" stroke="none"/>
      <path fill="none" d="M-2016.1923 -526 L-2047.2108 -526" clip-path="url(#clipPath2)"/>
      <path d="M-2056.2109 -526 L-2042.7109 -520.375 L-2046.0859 -526 L-2042.7109 -531.625 Z" clip-path="url(#clipPath2)" stroke="none"/>
      <path fill="none" d="M-2099.095 -450 L-1976.793 -450 L-1976.793 -400.998" clip-path="url(#clipPath2)"/>
      <path d="M-1976.793 -391.998 L-1971.168 -405.498 L-1976.793 -402.123 L-1982.418 -405.498 Z" clip-path="url(#clipPath2)" stroke="none"/>
      <path fill="none" d="M-2027.3191 -374 L-2058.2852 -374" clip-path="url(#clipPath2)"/>
      <path d="M-2067.2852 -374 L-2053.7852 -368.375 L-2057.1602 -374 L-2053.7852 -379.625 Z" clip-path="url(#clipPath2)" stroke="none"/>
    </g>
  </g>
</svg>
