<?xml version="1.0" encoding="UTF-8"?><svg xmlns="http://www.w3.org/2000/svg" xmlns:xlink="http://www.w3.org/1999/xlink" fill-opacity="1" color-rendering="auto" color-interpolation="auto" text-rendering="auto" stroke="black" stroke-linecap="square" width="631" stroke-miterlimit="10" shape-rendering="auto" stroke-opacity="1" fill="black" stroke-dasharray="none" font-weight="normal" stroke-width="1" height="284" font-family="'Dialog'" font-style="normal" stroke-linejoin="miter" font-size="12px" stroke-dashoffset="0" image-rendering="auto">
  <!--Generated by ySVG 2.5-->
  <defs id="genericDefs"/>
  <g>
    <defs id="defs1">
      <clipPath clipPathUnits="userSpaceOnUse" id="clipPath1">
        <path d="M0 0 L631 0 L631 284 L0 284 L0 0 Z"/>
      </clipPath>
      <clipPath clipPathUnits="userSpaceOnUse" id="clipPath2">
        <path d="M-2550 -549 L-1919 -549 L-1919 -265 L-2550 -265 L-2550 -549 Z"/>
      </clipPath>
    </defs>
    <g text-rendering="geometricPrecision" shape-rendering="geometricPrecision" transform="translate(2550,549)">
      <rect x="-2550" width="631" height="284" y="-549" clip-path="url(#clipPath2)" stroke="none"/>
    </g>
    <g fill="rgb(102,0,51)" text-rendering="geometricPrecision" shape-rendering="geometricPrecision" transform="matrix(1,0,0,1,2550,549)" stroke="rgb(102,0,51)">
      <rect x="-2534.4648" y="-468" clip-path="url(#clipPath2)" width="195.2031" rx="4" ry="4" height="36" stroke="none"/>
    </g>
    <g stroke-linecap="butt" transform="matrix(1,0,0,1,2550,549)" fill="rgb(204,204,204)" text-rendering="geometricPrecision" shape-rendering="geometricPrecision" stroke="rgb(204,204,204)" stroke-width="2" stroke-miterlimit="1.45">
      <rect x="-2534.4648" y="-468" clip-path="url(#clipPath2)" fill="none" width="195.2031" rx="4" ry="4" height="36"/>
      <text x="-2522.4648" font-size="16px" y="-443.6484" clip-path="url(#clipPath2)" font-family="'Tahoma'" stroke="none" stroke-width="1" xml:space="preserve">JavaCoreUtilsApplication</text>
    </g>
    <g fill="rgb(0,51,102)" text-rendering="geometricPrecision" shape-rendering="geometricPrecision" transform="matrix(1,0,0,1,2550,549)" stroke="rgb(0,51,102)">
      <rect x="-2309.2617" y="-468" clip-path="url(#clipPath2)" width="80.4609" rx="4" ry="4" height="36" stroke="none"/>
    </g>
    <g stroke-linecap="butt" transform="matrix(1,0,0,1,2550,549)" fill="rgb(204,204,204)" text-rendering="geometricPrecision" shape-rendering="geometricPrecision" stroke="rgb(204,204,204)" stroke-width="2" stroke-miterlimit="1.45">
      <rect x="-2309.2617" y="-468" clip-path="url(#clipPath2)" fill="none" width="80.4609" rx="4" ry="4" height="36"/>
      <text x="-2297.2617" font-size="16px" y="-443.6484" clip-path="url(#clipPath2)" font-family="'Tahoma'" stroke="none" stroke-width="1" xml:space="preserve">MainUtil</text>
    </g>
    <g fill="rgb(0,51,102)" text-rendering="geometricPrecision" shape-rendering="geometricPrecision" transform="matrix(1,0,0,1,2550,549)" stroke="rgb(0,51,102)">
      <rect x="-2198.8008" y="-534" clip-path="url(#clipPath2)" width="122.6016" rx="4" ry="4" height="36" stroke="none"/>
    </g>
    <g stroke-linecap="butt" transform="matrix(1,0,0,1,2550,549)" fill="rgb(204,204,204)" text-rendering="geometricPrecision" shape-rendering="geometricPrecision" stroke="rgb(204,204,204)" stroke-width="2" stroke-miterlimit="1.45">
      <rect x="-2198.8008" y="-534" clip-path="url(#clipPath2)" fill="none" width="122.6016" rx="4" ry="4" height="36"/>
      <text x="-2186.8008" font-size="16px" y="-509.6484" clip-path="url(#clipPath2)" font-family="'Tahoma'" stroke="none" stroke-width="1" xml:space="preserve">MainMathsUtil</text>
    </g>
    <g fill="rgb(0,51,102)" text-rendering="geometricPrecision" shape-rendering="geometricPrecision" transform="matrix(1,0,0,1,2550,549)" stroke="rgb(0,51,102)">
      <rect x="-2198.8008" y="-402" clip-path="url(#clipPath2)" width="111.5" rx="4" ry="4" height="36" stroke="none"/>
    </g>
    <g stroke-linecap="butt" transform="matrix(1,0,0,1,2550,549)" fill="rgb(204,204,204)" text-rendering="geometricPrecision" shape-rendering="geometricPrecision" stroke="rgb(204,204,204)" stroke-width="2" stroke-miterlimit="1.45">
      <rect x="-2198.8008" y="-402" clip-path="url(#clipPath2)" fill="none" width="111.5" rx="4" ry="4" height="36"/>
      <text x="-2186.8008" font-size="16px" y="-377.6484" clip-path="url(#clipPath2)" font-family="'Tahoma'" stroke="none" stroke-width="1" xml:space="preserve">MainTextUtil</text>
    </g>
    <g fill="rgb(0,51,102)" text-rendering="geometricPrecision" shape-rendering="geometricPrecision" transform="matrix(1,0,0,1,2550,549)" stroke="rgb(0,51,102)">
      <rect x="-2198.8008" y="-468" clip-path="url(#clipPath2)" width="79.6719" rx="4" ry="4" height="36" stroke="none"/>
    </g>
    <g stroke-linecap="butt" transform="matrix(1,0,0,1,2550,549)" fill="rgb(204,204,204)" text-rendering="geometricPrecision" shape-rendering="geometricPrecision" stroke="rgb(204,204,204)" stroke-width="2" stroke-miterlimit="1.45">
      <rect x="-2198.8008" y="-468" clip-path="url(#clipPath2)" fill="none" width="79.6719" rx="4" ry="4" height="36"/>
      <text x="-2186.8008" font-size="16px" y="-443.6484" clip-path="url(#clipPath2)" font-family="'Tahoma'" stroke="none" stroke-width="1" xml:space="preserve">PrintUtil</text>
    </g>
    <g fill="rgb(0,51,102)" text-rendering="geometricPrecision" shape-rendering="geometricPrecision" transform="matrix(1,0,0,1,2550,549)" stroke="rgb(0,51,102)">
      <rect x="-2046.1992" y="-534" clip-path="url(#clipPath2)" width="112.1172" rx="4" ry="4" height="36" stroke="none"/>
    </g>
    <g stroke-linecap="butt" transform="matrix(1,0,0,1,2550,549)" fill="rgb(204,204,204)" text-rendering="geometricPrecision" shape-rendering="geometricPrecision" stroke="rgb(204,204,204)" stroke-width="2" stroke-miterlimit="1.45">
      <rect x="-2046.1992" y="-534" clip-path="url(#clipPath2)" fill="none" width="112.1172" rx="4" ry="4" height="36"/>
      <text x="-2034.1992" font-size="16px" y="-509.6484" clip-path="url(#clipPath2)" font-family="'Tahoma'" stroke="none" stroke-width="1" xml:space="preserve">[Maths utils]</text>
    </g>
    <g fill="rgb(0,51,102)" text-rendering="geometricPrecision" shape-rendering="geometricPrecision" transform="matrix(1,0,0,1,2550,549)" stroke="rgb(0,51,102)">
      <rect x="-2057.3008" y="-402" clip-path="url(#clipPath2)" width="101.0156" rx="4" ry="4" height="36" stroke="none"/>
    </g>
    <g stroke-linecap="butt" transform="matrix(1,0,0,1,2550,549)" fill="rgb(204,204,204)" text-rendering="geometricPrecision" shape-rendering="geometricPrecision" stroke="rgb(204,204,204)" stroke-width="2" stroke-miterlimit="1.45">
      <rect x="-2057.3008" y="-402" clip-path="url(#clipPath2)" fill="none" width="101.0156" rx="4" ry="4" height="36"/>
      <text x="-2045.3008" font-size="16px" y="-377.6484" clip-path="url(#clipPath2)" font-family="'Tahoma'" stroke="none" stroke-width="1" xml:space="preserve">[Text utils]</text>
    </g>
    <g fill="rgb(102,0,51)" text-rendering="geometricPrecision" shape-rendering="geometricPrecision" transform="matrix(1,0,0,1,2550,549)" stroke="rgb(102,0,51)">
      <rect x="-2534.4648" y="-316" clip-path="url(#clipPath2)" width="100.9922" rx="4" ry="4" height="36" stroke="none"/>
    </g>
    <g stroke-linecap="butt" transform="matrix(1,0,0,1,2550,549)" fill="rgb(204,204,204)" text-rendering="geometricPrecision" shape-rendering="geometricPrecision" stroke="rgb(204,204,204)" stroke-width="2" stroke-miterlimit="1.45">
      <rect x="-2534.4648" y="-316" clip-path="url(#clipPath2)" fill="none" width="100.9922" rx="4" ry="4" height="36"/>
      <text x="-2522.4648" font-size="16px" y="-291.6484" clip-path="url(#clipPath2)" font-family="'Tahoma'" stroke="none" stroke-width="1" xml:space="preserve">Application</text>
    </g>
    <g fill="rgb(0,51,102)" text-rendering="geometricPrecision" shape-rendering="geometricPrecision" transform="matrix(1,0,0,1,2550,549)" stroke="rgb(0,51,102)">
      <rect x="-2423.5781" y="-316" clip-path="url(#clipPath2)" width="47.1562" rx="4" ry="4" height="36" stroke="none"/>
    </g>
    <g stroke-linecap="butt" transform="matrix(1,0,0,1,2550,549)" fill="rgb(204,204,204)" text-rendering="geometricPrecision" shape-rendering="geometricPrecision" stroke="rgb(204,204,204)" stroke-width="2" stroke-miterlimit="1.45">
      <rect x="-2423.5781" y="-316" clip-path="url(#clipPath2)" fill="none" width="47.1562" rx="4" ry="4" height="36"/>
      <text x="-2411.5781" font-size="16px" y="-291.6484" clip-path="url(#clipPath2)" font-family="'Tahoma'" stroke="none" stroke-width="1" xml:space="preserve">Util</text>
      <path fill="none" d="M-2309.2273 -450 L-2330.2356 -450" clip-path="url(#clipPath2)"/>
      <path d="M-2339.2356 -450 L-2325.7356 -444.375 L-2329.1106 -450 L-2325.7356 -455.625 Z" clip-path="url(#clipPath2)" stroke="none"/>
      <path fill="none" d="M-2198.802 -516 L-2269.0312 -516 L-2269.0312 -477.0146" clip-path="url(#clipPath2)"/>
      <path d="M-2269.0312 -468.0146 L-2263.4062 -481.5146 L-2269.0312 -478.1396 L-2274.6562 -481.5146 Z" clip-path="url(#clipPath2)" stroke="none"/>
      <path fill="none" d="M-2198.8132 -384 L-2269.0312 -384 L-2269.0312 -422.9854" clip-path="url(#clipPath2)"/>
      <path d="M-2269.0312 -431.9854 L-2274.6562 -418.4854 L-2269.0312 -421.8604 L-2263.4062 -418.4854 Z" clip-path="url(#clipPath2)" stroke="none"/>
      <path fill="none" d="M-2198.8035 -450 L-2219.8081 -450" clip-path="url(#clipPath2)"/>
      <path d="M-2228.8081 -450 L-2215.3081 -444.375 L-2218.6831 -450 L-2215.3081 -455.625 Z" clip-path="url(#clipPath2)" stroke="none"/>
      <path fill="none" d="M-2143.0508 -432.0251 L-2143.0508 -410.9625" clip-path="url(#clipPath2)"/>
      <path d="M-2143.0508 -401.9625 L-2137.4258 -415.4625 L-2143.0508 -412.0875 L-2148.6758 -415.4625 Z" clip-path="url(#clipPath2)" stroke="none"/>
      <path fill="none" d="M-2137.5 -467.9884 L-2137.5 -489.0425" clip-path="url(#clipPath2)"/>
      <path d="M-2137.5 -498.0425 L-2143.125 -484.5425 L-2137.5 -487.9175 L-2131.875 -484.5425 Z" clip-path="url(#clipPath2)" stroke="none"/>
      <path fill="none" d="M-2119.1082 -450 L-1990.1406 -450 L-1990.1406 -488.9854" clip-path="url(#clipPath2)"/>
      <path d="M-1990.1406 -497.9854 L-1995.7656 -484.4854 L-1990.1406 -487.8604 L-1984.5156 -484.4854 Z" clip-path="url(#clipPath2)" stroke="none"/>
      <path fill="none" d="M-2046.2279 -516 L-2067.2212 -516" clip-path="url(#clipPath2)"/>
      <path d="M-2076.2212 -516 L-2062.7212 -510.375 L-2066.0962 -516 L-2062.7212 -521.625 Z" clip-path="url(#clipPath2)" stroke="none"/>
      <path fill="none" d="M-2119.1016 -450 L-2006.793 -450 L-2006.793 -411.0146" clip-path="url(#clipPath2)"/>
      <path d="M-2006.793 -402.0146 L-2001.168 -415.5146 L-2006.793 -412.1396 L-2012.418 -415.5146 Z" clip-path="url(#clipPath2)" stroke="none"/>
      <path fill="none" d="M-2057.3242 -384 L-2078.3369 -384" clip-path="url(#clipPath2)"/>
      <path d="M-2087.3369 -384 L-2073.8369 -378.375 L-2077.2119 -384 L-2073.8369 -389.625 Z" clip-path="url(#clipPath2)" stroke="none"/>
    </g>
  </g>
</svg>
